<svg xmlns="http://www.w3.org/2000/svg" viewBox="0 0 1600 900" preserveAspectRatio="xMidYMid slice">
  <defs>
    <linearGradient id="sky" x1="0" y1="0" x2="0" y2="1">
      <stop offset="0" stop-color="#63a4ff" />
      <stop offset="0.55" stop-color="#8ec5ff" />
      <stop offset="1" stop-color="#d7ecff" />
    </linearGradient>
    <linearGradient id="hillLight" x1="0" y1="0" x2="1" y2="1">
      <stop offset="0" stop-color="#78c040" />
      <stop offset="1" stop-color="#3c8d2f" />
    </linearGradient>
    <linearGradient id="hillShadow" x1="0" y1="0" x2="1" y2="1">
      <stop offset="0" stop-color="#66a233" />
      <stop offset="1" stop-color="#2e7528" />
    </linearGradient>
  </defs>
  <rect width="1600" height="900" fill="url(#sky)" />
  <path d="M0 540 Q260 470 520 520 T1080 500 T1600 520 V900 H0 Z" fill="url(#hillLight)" />
  <path d="M0 580 Q220 520 480 540 T1020 520 T1600 560 V900 H0 Z" fill="url(#hillShadow)" opacity="0.9" />
  <path d="M0 630 Q200 600 420 620 T960 600 T1600 640 V900 H0 Z" fill="#4f9f2f" opacity="0.8" />
  <g opacity="0.35" fill="#fff">
    <ellipse cx="280" cy="190" rx="130" ry="48" />
    <ellipse cx="380" cy="200" rx="140" ry="42" />
    <ellipse cx="460" cy="190" rx="110" ry="38" />
    <ellipse cx="1080" cy="160" rx="150" ry="50" />
    <ellipse cx="1200" cy="175" rx="170" ry="54" />
  </g>
</svg>
